<?xml version="1.0" encoding="utf-8"?>
<!-- Generator: Adobe Illustrator 23.0.1, SVG Export Plug-In . SVG Version: 6.00 Build 0)  -->
<svg version="1.1" id="Layer_1" xmlns="http://www.w3.org/2000/svg" xmlns:xlink="http://www.w3.org/1999/xlink" x="0px" y="0px"
	 viewBox="0 0 20 20" style="enable-background:new 0 0 20 20;" xml:space="preserve">
<style type="text/css">
	.st0{fill:#FFFFFF;}
</style>
<g>
	<path class="st0" d="M0.44,17.38l4.12-4.12c-0.99-1.43-1.49-3.03-1.49-4.79c0-1.15,0.22-2.24,0.67-3.29
		c0.44-1.05,1.04-1.95,1.8-2.7s1.66-1.36,2.7-1.8C9.3,0.22,10.39,0,11.54,0c1.14,0,2.24,0.22,3.29,0.67c1.05,0.45,1.95,1.05,2.7,1.8
		s1.36,1.66,1.8,2.7C19.78,6.22,20,7.32,20,8.46c0,1.15-0.22,2.24-0.67,3.29c-0.44,1.04-1.04,1.95-1.8,2.7
		c-0.76,0.76-1.66,1.36-2.7,1.8c-1.05,0.44-2.14,0.67-3.29,0.67c-1.76,0-3.36-0.5-4.8-1.49l-4.12,4.11C2.33,19.85,1.97,20,1.54,20
		c-0.42,0-0.78-0.15-1.08-0.46C0.15,19.24,0,18.88,0,18.46C0,18.04,0.15,17.68,0.44,17.38z M11.54,13.85c1.48,0,2.75-0.53,3.8-1.58
		s1.58-2.32,1.58-3.8c0-1.48-0.53-2.75-1.58-3.8c-1.05-1.05-2.32-1.58-3.8-1.58c-1.48,0-2.75,0.53-3.81,1.58
		c-1.05,1.05-1.58,2.32-1.58,3.8c0,1.48,0.53,2.75,1.58,3.8S10.06,13.85,11.54,13.85z"/>
</g>
</svg>
