<?xml version="1.0" encoding="utf-8"?>
<!-- Generator: Adobe Illustrator 23.0.1, SVG Export Plug-In . SVG Version: 6.00 Build 0)  -->
<svg version="1.1" id="Layer_1" xmlns="http://www.w3.org/2000/svg" xmlns:xlink="http://www.w3.org/1999/xlink" x="0px" y="0px"
	 viewBox="0 0 930 155" style="enable-background:new 0 0 930 155;" xml:space="preserve">
<style type="text/css">
	.st0{opacity:0.7;fill:#FFFFFF;}
	.st1{fill:#FFFFFF;}
</style>
<path class="st0" d="M113.47,1.49L90.12,98.51H77.94L56.77,23.24L37.13,98.51h-12.5L0,1.49h12.61L32.04,80.1L52.62,1.49h9.89
	L84.7,80.1L102.8,1.49H113.47z"/>
<path class="st0" d="M158.62,98.51h-12.15V1.49h34.4c10.76,0,18.69,2.93,23.81,8.78c5.12,5.85,7.68,12.52,7.68,20.01
	c0,8.34-2.78,15.23-8.35,20.68c-5.57,5.45-12.85,8.17-21.85,8.17h-23.53V98.51z M158.62,49.04h22.32c5.73,0,10.35-1.72,13.86-5.15
	c3.51-3.44,5.26-7.97,5.26-13.61c0-4.83-1.56-9.14-4.69-12.94c-3.13-3.79-7.65-5.69-13.58-5.69h-23.17V49.04z"/>
<path class="st1" d="M298.07,61.48l27.22,1.63c-1.28,11.89-5.67,21.01-13.18,27.36c-7.51,6.35-16.74,9.52-27.68,9.52
	c-13.17,0-23.81-4.36-31.91-13.08c-8.1-8.72-12.15-20.75-12.15-36.1c0-15.21,3.84-27.48,11.51-36.82c7.68-9.33,18.38-14,32.13-14
	c12.84,0,22.71,3.55,29.6,10.66c6.89,7.11,10.79,16.54,11.69,28.29l-27.79,1.49c0-6.49-1.24-11.18-3.73-14.07
	c-2.49-2.89-5.41-4.34-8.78-4.34c-9.38,0-14.07,9.43-14.07,28.29c0,10.57,1.22,17.74,3.66,21.54c2.44,3.79,5.86,5.69,10.27,5.69
	C292.71,77.54,297.12,72.19,298.07,61.48z"/>
<path class="st1" d="M412.26,98.51l-5.48-19.12h-25.99l-5.83,19.12h-24.18l29.95-97.02h31.49l30.43,97.02H412.26z M385.85,58.21
	h15.7l-7.85-28.14L385.85,58.21z"/>
<path class="st1" d="M577.59,1.49v97.02h-27.65V29.14L532,98.51h-18.91l-18.66-69.37v69.37h-22.32V1.49h38.91l14.07,51.53
	l13.43-51.53H577.59z"/>
<path class="st1" d="M645.8,63.26v35.25h-30.21V1.49h41.44c10.33,0,18.18,1.18,23.56,3.55c5.38,2.37,9.64,5.99,12.79,10.87
	c3.15,4.88,4.73,10.35,4.73,16.42c0,9.24-3.22,16.7-9.67,22.39c-6.44,5.69-15.04,8.53-25.8,8.53H645.8z M645.37,42.43h9.95
	c8.77,0,13.15-3.22,13.15-9.67c0-6.06-4.05-9.1-12.15-9.1h-10.95V42.43z"/>
<path class="st1" d="M810.78,1.49v64.25c0,12.18-3.61,20.93-10.84,26.26c-7.23,5.33-16.64,8-28.25,8c-12.22,0-22.04-2.56-29.46-7.68
	c-7.42-5.12-11.12-13.46-11.12-25.02V1.49h30.28v62.33c0,4.64,0.98,8.03,2.94,10.16c1.96,2.13,5.09,3.2,9.39,3.2
	c3.59,0,6.53-0.77,8.82-2.31c2.29-1.54,3.66-3.28,4.11-5.22c0.45-1.94,0.67-5.73,0.67-11.37V1.49H810.78z"/>
<path class="st1" d="M842.93,70.43l27.65-4.98c2.32,7.82,8.29,11.73,17.91,11.73c7.49,0,11.23-1.99,11.23-5.97
	c0-2.08-0.86-3.71-2.59-4.87c-1.73-1.16-4.82-2.19-9.28-3.09c-17.01-3.26-27.94-7.52-32.77-12.78c-4.83-5.26-7.25-11.45-7.25-18.56
	c0-9.15,3.47-16.75,10.41-22.82c6.94-6.07,16.93-9.1,29.96-9.1c19.76,0,32.81,7.94,39.16,23.81l-24.66,7.46
	c-2.56-6.49-7.75-9.74-15.57-9.74c-6.49,0-9.74,2.01-9.74,6.04c0,1.8,0.73,3.2,2.2,4.19c1.47,1,4.31,1.94,8.53,2.84
	c11.61,2.46,19.86,4.63,24.74,6.52c4.88,1.89,8.96,5.12,12.22,9.7c3.27,4.57,4.9,9.97,4.9,16.18c0,9.82-3.98,17.77-11.94,23.86
	c-7.96,6.09-18.41,9.14-31.34,9.14C863.07,100,848.48,90.15,842.93,70.43z"/>
<path class="st1" d="M28.59,154.61h-3.31l-5.82-19.3c-0.28-0.85-0.59-1.93-0.93-3.23c-0.34-1.3-0.52-2.08-0.53-2.35
	c-0.29,1.73-0.75,3.63-1.38,5.7l-5.64,19.18H7.67L0,125.78h3.55l4.55,17.8c0.63,2.5,1.09,4.76,1.38,6.78
	c0.35-2.41,0.88-4.76,1.58-7.06l5.17-17.53h3.55l5.42,17.68c0.63,2.04,1.16,4.34,1.6,6.9c0.25-1.87,0.72-4.14,1.42-6.82l4.53-17.76
	h3.55L28.59,154.61z"/>
<path class="st1" d="M63.1,154.61h-3.35v-13.56H44.57v13.56h-3.35v-28.82h3.35v12.26h15.18v-12.26h3.35V154.61z"/>
<path class="st1" d="M87.48,154.61H71.41v-28.82h16.07v2.98H74.76v9.29h11.95V141H74.76v10.61h12.72V154.61z"/>
<path class="st1" d="M97.62,142.62v11.99h-3.35v-28.82h7.91c3.54,0,6.15,0.68,7.84,2.03c1.69,1.35,2.53,3.39,2.53,6.11
	c0,3.81-1.93,6.39-5.8,7.73l7.83,12.95h-3.96l-6.98-11.99H97.62z M97.62,139.74h4.59c2.37,0,4.1-0.47,5.2-1.41
	c1.1-0.94,1.66-2.35,1.66-4.23c0-1.91-0.56-3.28-1.69-4.12s-2.93-1.26-5.41-1.26h-4.36V139.74z"/>
<path class="st1" d="M135.7,154.61h-16.07v-28.82h16.07v2.98h-12.72v9.29h11.95V141h-11.95v10.61h12.72V154.61z"/>
<path class="st1" d="M178.54,154.61h-3.31l-5.82-19.3c-0.28-0.85-0.59-1.93-0.93-3.23c-0.34-1.3-0.52-2.08-0.53-2.35
	c-0.29,1.73-0.75,3.63-1.38,5.7l-5.64,19.18h-3.31l-7.67-28.82h3.55l4.55,17.8c0.63,2.5,1.09,4.76,1.38,6.78
	c0.35-2.41,0.88-4.76,1.58-7.06l5.17-17.53h3.55l5.42,17.68c0.63,2.04,1.16,4.34,1.6,6.9c0.25-1.87,0.72-4.14,1.42-6.82l4.53-17.76
	h3.55L178.54,154.61z"/>
<path class="st1" d="M216.18,140.15c0,4.61-1.17,8.24-3.5,10.88c-2.33,2.64-5.58,3.96-9.73,3.96c-4.25,0-7.52-1.3-9.83-3.89
	c-2.31-2.6-3.46-6.26-3.46-10.99c0-4.69,1.16-8.33,3.47-10.91c2.31-2.58,5.6-3.87,9.86-3.87c4.14,0,7.37,1.31,9.7,3.94
	C215.02,131.9,216.18,135.53,216.18,140.15z M193.22,140.15c0,3.9,0.83,6.86,2.49,8.88c1.66,2.02,4.08,3.03,7.25,3.03
	c3.19,0,5.61-1.01,7.24-3.02c1.63-2.01,2.44-4.98,2.44-8.89c0-3.88-0.81-6.82-2.43-8.82c-1.62-2-4.03-3.01-7.21-3.01
	c-3.19,0-5.62,1.01-7.28,3.03C194.05,133.37,193.22,136.3,193.22,140.15z"/>
<path class="st1" d="M226.37,142.62v11.99h-3.35v-28.82h7.91c3.54,0,6.15,0.68,7.84,2.03c1.69,1.35,2.53,3.39,2.53,6.11
	c0,3.81-1.93,6.39-5.8,7.73l7.83,12.95h-3.96l-6.98-11.99H226.37z M226.37,139.74h4.59c2.37,0,4.1-0.47,5.2-1.41
	c1.1-0.94,1.66-2.35,1.66-4.23c0-1.91-0.56-3.28-1.69-4.12s-2.93-1.26-5.41-1.26h-4.36V139.74z"/>
<path class="st1" d="M271.39,139.92c0,4.76-1.29,8.4-3.87,10.91c-2.58,2.52-6.3,3.78-11.15,3.78h-7.98v-28.82h8.83
	c4.48,0,7.96,1.24,10.45,3.73C270.14,131.99,271.39,135.46,271.39,139.92z M267.84,140.04c0-3.76-0.94-6.59-2.83-8.5
	c-1.89-1.91-4.69-2.86-8.41-2.86h-4.87v23.03h4.08c4,0,7-0.98,9.01-2.95C266.83,146.8,267.84,143.89,267.84,140.04z"/>
<path class="st1" d="M296.49,134.18c0,2.92-1,5.16-2.99,6.73c-1.99,1.57-4.84,2.36-8.55,2.36h-3.39v11.34h-3.35v-28.82h7.47
	C292.89,125.78,296.49,128.58,296.49,134.18z M281.57,140.39h3.02c2.97,0,5.12-0.48,6.45-1.44c1.33-0.96,1.99-2.5,1.99-4.61
	c0-1.91-0.62-3.32-1.87-4.26c-1.25-0.93-3.19-1.4-5.84-1.4h-3.75V140.39z"/>
<path class="st1" d="M306.28,142.62v11.99h-3.35v-28.82h7.91c3.54,0,6.15,0.68,7.84,2.03c1.69,1.35,2.53,3.39,2.53,6.11
	c0,3.81-1.93,6.39-5.8,7.73l7.83,12.95h-3.96l-6.98-11.99H306.28z M306.28,139.74h4.59c2.37,0,4.1-0.47,5.2-1.41
	c1.1-0.94,1.66-2.35,1.66-4.23c0-1.91-0.56-3.28-1.69-4.12c-1.12-0.84-2.93-1.26-5.41-1.26h-4.36V139.74z"/>
<path class="st1" d="M344.36,154.61h-16.07v-28.82h16.07v2.98h-12.72v9.29h11.95V141h-11.95v10.61h12.72V154.61z"/>
<path class="st1" d="M367.42,146.94c0,2.54-0.92,4.51-2.76,5.93c-1.84,1.42-4.34,2.13-7.49,2.13c-3.42,0-6.05-0.44-7.89-1.32v-3.23
	c1.18,0.5,2.47,0.89,3.86,1.18c1.39,0.29,2.77,0.43,4.14,0.43c2.23,0,3.92-0.42,5.05-1.27c1.13-0.85,1.7-2.03,1.7-3.54
	c0-1-0.2-1.82-0.6-2.45c-0.4-0.64-1.07-1.23-2.01-1.76c-0.94-0.54-2.37-1.15-4.29-1.83c-2.68-0.96-4.6-2.1-5.75-3.41
	c-1.15-1.31-1.73-3.03-1.73-5.15c0-2.22,0.83-3.99,2.5-5.3c1.67-1.31,3.88-1.97,6.62-1.97c2.87,0,5.5,0.53,7.91,1.58l-1.04,2.92
	c-2.38-1-4.69-1.5-6.94-1.5c-1.77,0-3.16,0.38-4.16,1.14c-1,0.76-1.5,1.82-1.5,3.17c0,1,0.18,1.82,0.55,2.45
	c0.37,0.64,0.99,1.22,1.86,1.75c0.87,0.53,2.21,1.12,4.01,1.76c3.02,1.08,5.1,2.23,6.24,3.47
	C366.85,143.36,367.42,144.96,367.42,146.94z"/>
<path class="st1" d="M389.98,146.94c0,2.54-0.92,4.51-2.76,5.93c-1.84,1.42-4.34,2.13-7.49,2.13c-3.42,0-6.05-0.44-7.89-1.32v-3.23
	c1.18,0.5,2.47,0.89,3.86,1.18c1.39,0.29,2.77,0.43,4.14,0.43c2.23,0,3.92-0.42,5.05-1.27c1.13-0.85,1.7-2.03,1.7-3.54
	c0-1-0.2-1.82-0.6-2.45c-0.4-0.64-1.07-1.23-2.01-1.76c-0.94-0.54-2.37-1.15-4.29-1.83c-2.68-0.96-4.6-2.1-5.75-3.41
	c-1.15-1.31-1.73-3.03-1.73-5.15c0-2.22,0.83-3.99,2.5-5.3c1.67-1.31,3.88-1.97,6.62-1.97c2.87,0,5.5,0.53,7.91,1.58l-1.04,2.92
	c-2.38-1-4.69-1.5-6.94-1.5c-1.77,0-3.16,0.38-4.16,1.14c-1,0.76-1.5,1.82-1.5,3.17c0,1,0.18,1.82,0.55,2.45
	c0.37,0.64,0.99,1.22,1.86,1.75c0.87,0.53,2.21,1.12,4.01,1.76c3.02,1.08,5.1,2.23,6.24,3.47
	C389.41,143.36,389.98,144.96,389.98,146.94z"/>
<path class="st1" d="M419.93,154.61l-9.78-25.55h-0.16c0.18,2.02,0.28,4.43,0.28,7.22v18.34h-3.1v-28.82h5.05l9.13,23.78h0.16
	l9.21-23.78h5.01v28.82h-3.35v-18.57c0-2.13,0.09-4.44,0.28-6.94h-0.16l-9.86,25.51H419.93z"/>
<path class="st1" d="M460.1,154.61h-16.07v-28.82h16.07v2.98h-12.72v9.29h11.95V141h-11.95v10.61h12.72V154.61z"/>
<path class="st1" d="M482.96,154.61h-16.07v-28.82h16.07v2.98h-12.72v9.29h11.95V141h-11.95v10.61h12.72V154.61z"/>
<path class="st1" d="M498.62,154.61h-3.35v-25.85h-9.13v-2.98h21.61v2.98h-9.13V154.61z"/>
<path class="st1" d="M528.75,146.94c0,2.54-0.92,4.51-2.76,5.93c-1.84,1.42-4.34,2.13-7.49,2.13c-3.42,0-6.05-0.44-7.89-1.32v-3.23
	c1.18,0.5,2.47,0.89,3.86,1.18c1.39,0.29,2.77,0.43,4.14,0.43c2.23,0,3.92-0.42,5.05-1.27c1.13-0.85,1.7-2.03,1.7-3.54
	c0-1-0.2-1.82-0.6-2.45c-0.4-0.64-1.07-1.23-2.01-1.76c-0.94-0.54-2.37-1.15-4.29-1.83c-2.68-0.96-4.6-2.1-5.75-3.41
	c-1.15-1.31-1.73-3.03-1.73-5.15c0-2.22,0.83-3.99,2.5-5.3c1.67-1.31,3.88-1.97,6.62-1.97c2.87,0,5.5,0.53,7.91,1.58l-1.04,2.92
	c-2.38-1-4.69-1.5-6.94-1.5c-1.77,0-3.16,0.38-4.16,1.14c-1,0.76-1.5,1.82-1.5,3.17c0,1,0.18,1.82,0.55,2.45
	c0.37,0.64,0.99,1.22,1.86,1.75c0.87,0.53,2.21,1.12,4.01,1.76c3.02,1.08,5.1,2.23,6.24,3.47
	C528.18,143.36,528.75,144.96,528.75,146.94z"/>
<path class="st1" d="M567.83,154.61h-3.35v-13.56H549.3v13.56h-3.35v-28.82h3.35v12.26h15.18v-12.26h3.35V154.61z"/>
<path class="st1" d="M576.14,154.61v-28.82h3.35v28.82H576.14z"/>
<path class="st1" d="M600.48,139.5h9.8v14.02c-1.52,0.49-3.08,0.85-4.65,1.1c-1.58,0.25-3.4,0.37-5.48,0.37
	c-4.36,0-7.76-1.3-10.19-3.89c-2.43-2.6-3.65-6.23-3.65-10.91c0-3,0.6-5.62,1.8-7.88c1.2-2.25,2.93-3.98,5.19-5.17
	c2.26-1.19,4.91-1.78,7.95-1.78c3.08,0,5.94,0.56,8.6,1.7l-1.3,2.96c-2.6-1.1-5.11-1.66-7.51-1.66c-3.51,0-6.25,1.04-8.22,3.13
	c-1.97,2.09-2.96,4.99-2.96,8.69c0,3.89,0.95,6.84,2.85,8.85c1.9,2.01,4.69,3.02,8.37,3.02c2,0,3.95-0.23,5.86-0.69v-8.87h-6.45
	V139.5z"/>
<path class="st1" d="M639.48,154.61h-3.35v-13.56h-15.18v13.56h-3.35v-28.82h3.35v12.26h15.18v-12.26h3.35V154.61z"/>
<path class="st1" d="M663.86,154.61h-16.07v-28.82h16.07v2.98h-12.72v9.29h11.95V141h-11.95v10.61h12.72V154.61z"/>
<path class="st1" d="M674,142.62v11.99h-3.35v-28.82h7.91c3.54,0,6.15,0.68,7.84,2.03s2.53,3.39,2.53,6.11
	c0,3.81-1.93,6.39-5.8,7.73l7.83,12.95h-3.96l-6.98-11.99H674z M674,139.74h4.59c2.37,0,4.1-0.47,5.2-1.41
	c1.1-0.94,1.66-2.35,1.66-4.23c0-1.91-0.56-3.28-1.69-4.12s-2.93-1.26-5.41-1.26H674V139.74z"/>
<path class="st1" d="M722.97,154.61h-16.07v-28.82h16.07v2.98h-12.72v9.29h11.95V141h-11.95v10.61h12.72V154.61z"/>
<path class="st1" d="M752.77,139.92c0,4.76-1.29,8.4-3.87,10.91c-2.58,2.52-6.3,3.78-11.15,3.78h-7.98v-28.82h8.83
	c4.48,0,7.96,1.24,10.45,3.73C751.53,131.99,752.77,135.46,752.77,139.92z M749.22,140.04c0-3.76-0.94-6.59-2.83-8.5
	c-1.89-1.91-4.69-2.86-8.41-2.86h-4.87v23.03h4.08c4,0,7-0.98,9.01-2.95C748.22,146.8,749.22,143.89,749.22,140.04z"/>
<path class="st1" d="M781.37,125.78v18.65c0,3.29-0.99,5.87-2.98,7.75c-1.98,1.88-4.71,2.82-8.18,2.82c-3.47,0-6.15-0.95-8.05-2.84
	c-1.9-1.89-2.85-4.5-2.85-7.81v-18.57h3.35v18.81c0,2.41,0.66,4.25,1.97,5.54c1.31,1.29,3.25,1.93,5.8,1.93
	c2.43,0,4.3-0.65,5.62-1.94c1.31-1.29,1.97-3.15,1.97-5.57v-18.77H781.37z"/>
<path class="st1" d="M801.74,128.36c-3.17,0-5.67,1.05-7.5,3.16s-2.75,5-2.75,8.66c0,3.77,0.88,6.69,2.65,8.74s4.29,3.09,7.56,3.09
	c2.01,0,4.3-0.36,6.88-1.08v2.94c-2,0.75-4.46,1.12-7.39,1.12c-4.25,0-7.52-1.29-9.83-3.86s-3.46-6.24-3.46-10.98
	c0-2.97,0.55-5.57,1.67-7.81c1.11-2.23,2.71-3.96,4.81-5.17c2.1-1.21,4.56-1.81,7.4-1.81c3.02,0,5.67,0.55,7.93,1.66l-1.42,2.88
	C806.11,128.88,803.93,128.36,801.74,128.36z"/>
<path class="st1" d="M833.4,154.61l-3.59-9.17h-11.55l-3.55,9.17h-3.39l11.4-28.94h2.82l11.34,28.94H833.4z M828.76,142.42
	l-3.35-8.93c-0.43-1.13-0.88-2.52-1.34-4.16c-0.29,1.26-0.7,2.65-1.24,4.16l-3.39,8.93H828.76z"/>
<path class="st1" d="M850.11,154.61h-3.35v-25.85h-9.13v-2.98h21.61v2.98h-9.13V154.61z"/>
<path class="st1" d="M863.97,154.61v-28.82h3.35v28.82H863.97z"/>
<path class="st1" d="M900.65,140.15c0,4.61-1.17,8.24-3.5,10.88c-2.33,2.64-5.58,3.96-9.73,3.96c-4.25,0-7.52-1.3-9.83-3.89
	c-2.31-2.6-3.46-6.26-3.46-10.99c0-4.69,1.16-8.33,3.47-10.91c2.31-2.58,5.6-3.87,9.86-3.87c4.14,0,7.37,1.31,9.7,3.94
	C899.49,131.9,900.65,135.53,900.65,140.15z M877.69,140.15c0,3.9,0.83,6.86,2.49,8.88s4.08,3.03,7.25,3.03
	c3.19,0,5.61-1.01,7.24-3.02c1.63-2.01,2.44-4.98,2.44-8.89c0-3.88-0.81-6.82-2.43-8.82c-1.62-2-4.02-3.01-7.21-3.01
	c-3.19,0-5.62,1.01-7.28,3.03C878.52,133.37,877.69,136.3,877.69,140.15z"/>
<path class="st1" d="M930,154.61h-3.82l-15.75-24.19h-0.16c0.21,2.84,0.32,5.44,0.32,7.81v16.38h-3.1v-28.82h3.79l15.71,24.09h0.16
	c-0.03-0.35-0.09-1.5-0.18-3.42s-0.13-3.3-0.1-4.13v-16.54H930V154.61z"/>
</svg>
